# xmcd
#
# Track frame offsets:
#	150
#	18314
#	38171
#	53132
#	69123
#	91740
#	112222
#	133731
#	147967
#	169860
#
# Disc length: 2504 seconds
#
# Revision: 6
# Processed by: cddbd v1.4PL0 Copyright (c) Steve Scherf et al.
# Submitted via: MusicWizard 6.0.2
#
DISCID=8409c60a
DTITLE=Dolly Parton, Linda Ronstadt, Emmylou Harris - Trio II
DYEAR=1999
DGENRE=Country
TTITLE0=Lover's Return
TTITLE1=High Sierra
TTITLE2=Do I Ever Cross Your Mind
TTITLE3=After The Gold Rush
TTITLE4=The Blue Train
TTITLE5=I Feel The Blues Movin' In
TTITLE6=You'll Never Be The Sun
TTITLE7=He Rode All The Way To Texas
TTITLE8=Feels Like Home
TTITLE9=When We're Gone, Long Gone
EXTD=
EXTT0=
EXTT1=
EXTT2=
EXTT3=
EXTT4=
EXTT5=
EXTT6=
EXTT7=
EXTT8=
EXTT9=
PLAYORDER=
